<?xml version="1.0" encoding="utf-8"?>
<svg fill="#000000" version="1.1" id="Layer_1" xmlns="http://www.w3.org/2000/svg" viewBox="0 0 750.953 248.037">
  <g transform="matrix(1, 0, 0, 1, -195.117676, -19.495501)">
    <g>
      <g>
        <rect x="198.174" y="21.085" width="243.34" height="245.491" rx="30" ry="30" style="fill: rgb(173, 30, 107);"/>
        <g transform="matrix(1, 0, 0, 1, 0.51384, 1.398508)">
          <path d="M 423.705 129.676 C 423.567 128.29 423.401 126.911 423.21 125.538 C 421.34 112.154 416.94 99.448 410.107 87.714 C 407.636 83.472 402.194 82.034 397.951 84.506 C 393.709 86.976 392.273 92.419 394.743 96.661 C 400.96 107.336 404.745 118.983 405.998 131.28 L 233.684 131.303 C 235.84 110.114 245.737 90.516 261.566 76.107 C 277.535 61.571 298.233 53.565 319.846 53.565 C 339.877 53.565 359.409 60.562 374.844 73.267 C 378.632 76.385 384.236 75.845 387.358 72.053 C 390.478 68.263 389.935 62.66 386.144 59.54 C 367.535 44.222 343.991 35.785 319.846 35.785 C 293.796 35.785 268.849 45.435 249.598 62.958 C 230.481 80.361 218.543 104.055 215.983 129.677 C 215.49 134.608 217.12 139.549 220.453 143.231 C 223.804 146.935 228.591 149.059 233.586 149.059 L 328.522 149.059 L 365.671 149.059 L 406.105 149.059 C 411.1 149.059 415.887 146.935 419.237 143.231 C 422.57 139.548 424.199 134.607 423.705 129.676 Z" style="stroke-width: 3px; stroke-opacity: 0.75; fill: rgb(255, 255, 255);"/>
          <path d="M 356.987 147.391 L 357.024 150.135 L 356.887 152.44 C 356.887 159.768 357.304 167.177 358.123 174.456 C 358.948 181.737 360.196 189.052 361.829 196.198 C 364.772 209.051 361.747 222.336 353.529 232.648 C 345.309 242.962 333.031 248.877 319.844 248.877 C 296.087 248.877 276.759 229.59 276.759 205.881 C 276.759 202.642 277.13 199.382 277.86 196.196 C 280.309 185.499 281.867 174.512 282.487 163.538 C 282.764 158.636 286.964 154.889 291.865 155.165 C 296.767 155.442 300.515 159.641 300.238 164.543 C 299.56 176.512 297.862 188.497 295.189 200.167 C 294.756 202.054 294.537 203.976 294.537 205.881 C 294.537 219.785 305.889 231.098 319.843 231.098 C 327.586 231.098 334.796 227.624 339.624 221.566 C 344.449 215.511 346.226 207.71 344.496 200.162 C 342.715 192.371 341.181 181.875 340.454 176.452 C 339.727 171.029 340.186 176.645 339.105 152.439 L 339.129 147.448" style="stroke-width: 3px; stroke-opacity: 0.75; fill: rgb(255, 255, 255);"/>
        </g>
      </g>
    </g>
    <g transform="matrix(1, 0, 0, 1, 2.030984, -26)">
      <g/>
    </g>
  </g>
  <path d="M 312.513 86.868 C 311.502 89.9 310.623 93.035 309.874 96.273 C 309.125 99.511 308.508 102.749 308.021 105.987 C 307.534 109.226 307.169 112.417 306.926 115.561 C 306.683 118.706 306.561 121.682 306.561 124.49 C 306.561 126.549 306.57 128.86 306.589 131.425 C 306.608 133.989 306.757 136.6 307.038 139.258 C 307.319 141.916 307.777 144.508 308.414 147.035 C 309.051 149.562 309.996 151.817 311.25 153.801 C 312.504 155.785 314.114 157.376 316.079 158.574 C 318.044 159.772 320.487 160.371 323.407 160.371 C 325.99 160.371 328.208 159.931 330.061 159.051 C 331.914 158.172 333.486 156.983 334.778 155.486 C 336.069 153.989 337.099 152.267 337.866 150.32 C 338.633 148.373 339.232 146.333 339.663 144.199 C 340.094 142.065 340.374 139.903 340.505 137.714 C 340.636 135.524 340.702 133.437 340.702 131.453 L 340.702 86.868 L 362.994 86.868 L 362.994 127.971 C 362.994 133.848 362.058 139.314 360.186 144.368 C 358.315 149.421 355.676 153.81 352.269 157.535 C 348.862 161.26 344.744 164.18 339.915 166.295 C 335.086 168.41 329.733 169.468 323.856 169.468 C 319.813 169.468 316.05 168.897 312.569 167.755 C 309.088 166.613 305.896 165.041 302.995 163.038 C 300.094 161.035 297.511 158.658 295.246 155.907 C 292.981 153.156 291.091 150.151 289.575 146.894 C 288.059 143.637 286.908 140.203 286.122 136.591 C 285.335 132.978 284.98 129.319 285.055 125.613 L 285.055 124.49 C 285.092 121.495 285.392 118.397 285.953 115.196 C 286.514 111.995 287.272 108.785 288.227 105.566 C 289.182 102.347 290.333 99.155 291.681 95.992 C 293.028 92.829 294.526 89.788 296.173 86.868 L 312.513 86.868 Z M 395.001 107.419 L 388.712 167.727 L 374.955 167.727 L 388.712 86.868 L 409.095 86.868 L 428.019 148.579 L 447.167 86.868 L 467.55 86.868 L 479.005 167.727 L 456.32 167.727 L 449.637 108.992 L 433.859 167.727 L 413.475 167.727 L 395.001 107.419 Z M 570.703 129.038 L 570.703 130.105 C 570.628 133.25 570.301 136.506 569.721 139.875 C 569.14 143.244 568.326 146.614 567.278 149.983 C 566.23 153.352 564.976 156.684 563.516 159.978 C 562.056 163.272 560.418 166.426 558.603 169.44 C 556.787 172.453 554.831 175.28 552.735 177.919 C 550.638 180.558 548.43 182.888 546.109 184.91 L 537.742 180.081 C 539.052 177.872 540.241 175.467 541.308 172.865 C 542.375 170.263 543.338 167.54 544.199 164.695 C 545.06 161.85 545.8 158.93 546.418 155.935 C 547.035 152.94 547.55 149.964 547.962 147.007 C 548.373 144.05 548.682 141.139 548.888 138.275 C 549.094 135.411 549.197 132.688 549.197 130.105 C 549.197 128.084 549.188 125.791 549.169 123.226 C 549.15 120.662 549.001 118.051 548.72 115.393 C 548.439 112.735 547.981 110.143 547.344 107.616 C 546.707 105.089 545.762 102.834 544.508 100.85 C 543.254 98.865 541.644 97.274 539.679 96.077 C 537.714 94.879 535.271 94.28 532.351 94.28 C 529.768 94.28 527.55 94.72 525.697 95.599 C 523.844 96.479 522.272 97.658 520.98 99.137 C 519.689 100.616 518.659 102.328 517.892 104.275 C 517.125 106.222 516.526 108.271 516.095 110.424 C 515.664 112.576 515.384 114.747 515.253 116.937 C 515.122 119.127 515.056 121.195 515.056 123.142 L 515.056 138.809 L 539.258 138.809 L 539.258 148.074 L 515.056 148.074 L 515.056 167.727 L 492.764 167.727 L 492.764 126.623 C 492.764 120.746 493.7 115.281 495.572 110.227 C 497.443 105.173 500.092 100.784 503.517 97.059 C 506.942 93.334 511.06 90.415 515.871 88.3 C 520.681 86.185 526.043 85.127 531.958 85.127 C 535.964 85.127 539.717 85.698 543.217 86.84 C 546.717 87.981 549.908 89.553 552.791 91.556 C 555.674 93.559 558.247 95.936 560.512 98.688 C 562.777 101.439 564.667 104.443 566.183 107.7 C 567.699 110.957 568.85 114.401 569.637 118.032 C 570.423 121.663 570.778 125.332 570.703 129.038 Z M 600.178 107.419 L 593.889 167.727 L 580.132 167.727 L 593.889 86.868 L 614.272 86.868 L 633.196 148.579 L 652.344 86.868 L 672.727 86.868 L 684.182 167.727 L 661.496 167.727 L 654.814 108.992 L 639.036 167.727 L 618.652 167.727 L 600.178 107.419 Z M 720.619 167.727 L 698.327 167.727 L 698.327 86.868 L 720.619 86.868 L 720.619 167.727 Z" style="text-wrap-mode: nowrap; fill: rgb(235, 235, 235);"/>
</svg>